<svg width="266" height="167" viewBox="0 0 266 167" fill="none" xmlns="http://www.w3.org/2000/svg">
  <path
    d="M152.783 39.6414H151.866V14.5324C151.866 12.624 151.49 10.7343 150.76 8.97111C150.03 7.20796 148.96 5.60591 147.61 4.25645C146.261 2.90699 144.659 1.83654 142.896 1.10622C141.133 0.375895 139.243 2.10706e-06 137.335 0H84.1418C80.2878 -7.90275e-06 76.5917 1.53107 73.8665 4.25642C71.1413 6.98177 69.6104 10.6781 69.6104 14.5324V152.282C69.6103 156.137 71.1413 159.833 73.8665 162.558C76.5916 165.284 80.2878 166.815 84.1417 166.815H137.335C141.189 166.815 144.885 165.284 147.61 162.558C150.335 159.833 151.866 156.137 151.866 152.282V57.5144H152.783L152.783 39.6414Z"
    fill="#E6E6E6" />
  <path
    d="M148.774 14.6344V152.182C148.774 155.06 147.63 157.821 145.595 159.856C143.56 161.891 140.799 163.035 137.921 163.035H84.473C81.5948 163.035 78.8345 161.891 76.7993 159.856C74.764 157.821 73.6207 155.06 73.6206 152.182V14.6344C73.6207 11.756 74.764 8.99547 76.7993 6.96012C78.8345 4.92477 81.5948 3.7813 84.473 3.78125H90.9569C90.6383 4.56423 90.517 5.41351 90.6036 6.25439C90.6902 7.09526 90.9821 7.90197 91.4537 8.60355C91.9252 9.30512 92.5619 9.88006 93.3078 10.2778C94.0536 10.6755 94.8858 10.8839 95.731 10.8845H126.205C127.05 10.8839 127.882 10.6755 128.628 10.2778C129.374 9.88004 130.011 9.3051 130.482 8.60353C130.954 7.90196 131.246 7.09526 131.332 6.25438C131.419 5.41351 131.298 4.56423 130.979 3.78125H137.921C140.799 3.7813 143.56 4.92477 145.595 6.96012C147.63 8.99547 148.774 11.756 148.774 14.6344Z"
    fill="white" />
  <path
    d="M142.641 80.6817C142.447 80.1446 142.092 79.6802 141.625 79.3517C141.158 79.0232 140.601 78.8465 140.03 78.8457H82.7737C82.4094 78.8456 82.0486 78.9172 81.7119 79.0566C81.3753 79.196 81.0694 79.4003 80.8117 79.658C80.5541 79.9156 80.3498 80.2216 80.2104 80.5582C80.071 80.8949 79.9994 81.2557 79.9995 81.6201V125.561C80.0006 126.296 80.2932 127.002 80.8132 127.522C81.3333 128.042 82.0383 128.334 82.7737 128.335H140.03C140.766 128.334 141.471 128.042 141.991 127.522C142.511 127.002 142.803 126.296 142.804 125.561V81.6201C142.805 81.3002 142.75 80.9827 142.641 80.6817Z"
    fill="#F8F8F8" />
  <path
    d="M142.641 80.6817C142.447 80.1446 142.092 79.6802 141.625 79.3517C141.158 79.0232 140.601 78.8465 140.03 78.8457H82.7737C82.4094 78.8456 82.0486 78.9172 81.7119 79.0566C81.3753 79.196 81.0694 79.4003 80.8117 79.658C80.5541 79.9156 80.3498 80.2216 80.2104 80.5582C80.071 80.8949 79.9994 81.2557 79.9995 81.6201V125.561C80.0006 126.296 80.2932 127.002 80.8132 127.522C81.3333 128.042 82.0383 128.334 82.7737 128.335H140.03C140.766 128.334 141.471 128.042 141.991 127.522C142.511 127.002 142.803 126.296 142.804 125.561V81.6201C142.805 81.3002 142.75 80.9827 142.641 80.6817Z"
    stroke="#3044AB" stroke-width="0.5" stroke-linecap="round" stroke-dasharray="2 2" />
  <path
    d="M142.641 80.6817C142.447 80.1446 142.092 79.6802 141.625 79.3517C141.158 79.0232 140.601 78.8465 140.03 78.8457H82.7737C82.4094 78.8456 82.0486 78.9172 81.7119 79.0566C81.3753 79.196 81.0694 79.4003 80.8117 79.658C80.5541 79.9156 80.3498 80.2216 80.2104 80.5582C80.071 80.8949 79.9994 81.2557 79.9995 81.6201V125.561C80.0006 126.296 80.2932 127.002 80.8132 127.522C81.3333 128.042 82.0383 128.334 82.7737 128.335H140.03C140.766 128.334 141.471 128.042 141.991 127.522C142.511 127.002 142.803 126.296 142.804 125.561V81.6201C142.805 81.3002 142.75 80.9827 142.641 80.6817Z"
    stroke="url(#paint0_linear_5792_33202)" stroke-width="0.5" stroke-linecap="round" stroke-dasharray="2 2" />
  <path
    d="M142.436 25.4864C142.242 24.9493 141.887 24.4849 141.42 24.1564C140.953 23.8279 140.396 23.6512 139.825 23.6504H82.5686C82.2043 23.6503 81.8435 23.7219 81.5068 23.8613C81.1702 24.0007 80.8643 24.205 80.6067 24.4627C80.349 24.7203 80.1447 25.0262 80.0053 25.3629C79.8659 25.6996 79.7943 26.0604 79.7944 26.4248V70.3656C79.7955 71.1011 80.0881 71.8062 80.6081 72.3263C81.1282 72.8464 81.8332 73.139 82.5686 73.14H139.825C140.56 73.139 141.265 72.8464 141.786 72.3263C142.306 71.8062 142.598 71.1011 142.599 70.3656V26.4248C142.6 26.1049 142.545 25.7873 142.436 25.4864Z"
    fill="white" />
  <path
    d="M142.436 25.4864C142.242 24.9493 141.887 24.4849 141.42 24.1564C140.953 23.8279 140.396 23.6512 139.825 23.6504H82.5686C82.2043 23.6503 81.8435 23.7219 81.5068 23.8613C81.1702 24.0007 80.8643 24.205 80.6067 24.4627C80.349 24.7203 80.1447 25.0262 80.0053 25.3629C79.8659 25.6996 79.7943 26.0604 79.7944 26.4248V70.3656C79.7955 71.1011 80.0881 71.8062 80.6081 72.3263C81.1282 72.8464 81.8332 73.139 82.5686 73.14H139.825C140.56 73.139 141.265 72.8464 141.786 72.3263C142.306 71.8062 142.598 71.1011 142.599 70.3656V26.4248C142.6 26.1049 142.545 25.7873 142.436 25.4864ZM142.273 70.3656C142.272 71.0146 142.014 71.6368 141.555 72.0958C141.096 72.5547 140.474 72.8129 139.825 72.8136H82.5686C81.9197 72.8129 81.2975 72.5547 80.8386 72.0958C80.3797 71.6368 80.1216 71.0146 80.1208 70.3656V26.4248C80.1216 25.7758 80.3797 25.1536 80.8386 24.6947C81.2975 24.2357 81.9197 23.9776 82.5686 23.9768H139.825C140.474 23.9776 141.096 24.2357 141.555 24.6947C142.014 25.1536 142.272 25.7758 142.273 26.4248V70.3656Z"
    fill="#3F3D56" />
  <path
    d="M138.183 29.5635V60.246C138.183 60.3474 138.163 60.4479 138.125 60.5416C138.086 60.6353 138.029 60.7204 137.957 60.7921C137.886 60.8639 137.801 60.9208 137.707 60.9596C137.613 60.9985 137.513 61.0185 137.411 61.0185H85.3291C85.292 61.0188 85.2549 61.0159 85.2184 61.0099C85.0346 60.9834 84.8666 60.8916 84.7451 60.7514C84.6235 60.6111 84.5566 60.4316 84.5566 60.246V29.5635C84.5566 29.4621 84.5765 29.3617 84.6153 29.268C84.6541 29.1743 84.7109 29.0891 84.7826 29.0174C84.8543 28.9456 84.9394 28.8887 85.0331 28.8499C85.1267 28.8111 85.2271 28.791 85.3285 28.791H137.411C137.512 28.791 137.613 28.8109 137.706 28.8497C137.8 28.8885 137.885 28.9453 137.957 29.017C138.029 29.0887 138.086 29.1738 138.125 29.2675C138.163 29.3612 138.183 29.4616 138.183 29.563V29.5635Z"
    fill="#E6E6E6" />
  <path
    d="M97.6852 47.0345C101.428 47.0345 104.462 44.0003 104.462 40.2575C104.462 36.5146 101.428 33.4805 97.6852 33.4805C93.9426 33.4805 90.9087 36.5146 90.9087 40.2575C90.9087 44.0003 93.9426 47.0345 97.6852 47.0345Z"
    fill="#3044AB" />
  <path
    d="M97.6852 47.0345C101.428 47.0345 104.462 44.0003 104.462 40.2575C104.462 36.5146 101.428 33.4805 97.6852 33.4805C93.9426 33.4805 90.9087 36.5146 90.9087 40.2575C90.9087 44.0003 93.9426 47.0345 97.6852 47.0345Z"
    fill="url(#paint1_linear_5792_33202)" />
  <path
    d="M118.936 61.1405H85.6921C85.6505 61.1411 85.6089 61.1378 85.5679 61.1307L101.291 33.8948C101.387 33.7251 101.526 33.584 101.694 33.4859C101.862 33.3877 102.054 33.3359 102.249 33.3359C102.444 33.3359 102.635 33.3877 102.803 33.4859C102.972 33.584 103.111 33.7251 103.207 33.8948L113.759 52.1722L114.264 53.0467L118.936 61.1405Z"
    fill="#3F3D56" />
  <path opacity="0.2"
    d="M118.936 61.1402H107.585L113.157 53.0463L113.558 52.4634L113.759 52.1719L114.264 53.0463L118.936 61.1402Z"
    fill="black" />
  <path
    d="M137.445 61.1409H108.692L114.264 53.0472L114.665 52.4641L121.926 41.9164C122.402 41.2251 123.547 41.182 124.106 41.786C124.144 41.8272 124.179 41.8707 124.211 41.9164L137.445 61.1409Z"
    fill="#3F3D56" />
  <rect x="102" y="157" width="20" height="3" rx="1.5" fill="#EFEFEF" />
  <path
    d="M84.992 145.128C84.192 145.128 83.424 145.011 82.688 144.776C81.9627 144.531 81.3813 144.205 80.944 143.8C80.784 143.651 80.704 143.464 80.704 143.24C80.704 143.091 80.7467 142.963 80.832 142.856C80.9173 142.739 81.0187 142.68 81.136 142.68C81.2747 142.68 81.424 142.739 81.584 142.856C82.576 143.624 83.7067 144.008 84.976 144.008C85.8933 144.008 86.5973 143.832 87.088 143.48C87.5787 143.128 87.824 142.627 87.824 141.976C87.824 141.603 87.7067 141.304 87.472 141.08C87.2373 140.845 86.928 140.659 86.544 140.52C86.16 140.381 85.6427 140.237 84.992 140.088C84.1173 139.885 83.3973 139.672 82.832 139.448C82.2773 139.224 81.824 138.904 81.472 138.488C81.1307 138.072 80.96 137.528 80.96 136.856C80.96 136.216 81.1307 135.651 81.472 135.16C81.824 134.659 82.3093 134.275 82.928 134.008C83.5573 133.731 84.272 133.592 85.072 133.592C85.8187 133.592 86.512 133.709 87.152 133.944C87.8027 134.168 88.3467 134.493 88.784 134.92C88.9547 135.091 89.04 135.277 89.04 135.48C89.04 135.629 88.9973 135.763 88.912 135.88C88.8267 135.987 88.7253 136.04 88.608 136.04C88.4907 136.04 88.336 135.981 88.144 135.864C87.6213 135.437 87.136 135.139 86.688 134.968C86.24 134.797 85.7013 134.712 85.072 134.712C84.1867 134.712 83.4987 134.899 83.008 135.272C82.5173 135.635 82.272 136.147 82.272 136.808C82.272 137.373 82.4853 137.8 82.912 138.088C83.3493 138.365 84.016 138.611 84.912 138.824C85.8827 139.059 86.6453 139.277 87.2 139.48C87.7547 139.672 88.2133 139.965 88.576 140.36C88.9493 140.755 89.136 141.283 89.136 141.944C89.136 142.573 88.96 143.128 88.608 143.608C88.2667 144.088 87.7813 144.461 87.152 144.728C86.5227 144.995 85.8027 145.128 84.992 145.128ZM95.011 137.016C95.9283 137.016 96.6217 137.277 97.091 137.8C97.5603 138.312 97.795 139.08 97.795 140.104V144.44C97.795 144.643 97.7363 144.803 97.619 144.92C97.5017 145.027 97.347 145.08 97.155 145.08C96.9523 145.08 96.7923 145.027 96.675 144.92C96.5577 144.803 96.499 144.643 96.499 144.44V140.136C96.499 139.443 96.355 138.931 96.067 138.6C95.7897 138.269 95.3417 138.104 94.723 138.104C94.0083 138.104 93.4377 138.323 93.011 138.76C92.5843 139.197 92.371 139.789 92.371 140.536V144.44C92.371 144.643 92.3123 144.803 92.195 144.92C92.0883 145.027 91.9337 145.08 91.731 145.08C91.5283 145.08 91.3683 145.027 91.251 144.92C91.1337 144.803 91.075 144.643 91.075 144.44V134.264C91.075 134.083 91.1337 133.933 91.251 133.816C91.379 133.699 91.539 133.64 91.731 133.64C91.9337 133.64 92.0883 133.699 92.195 133.816C92.3123 133.923 92.371 134.072 92.371 134.264V138.456C92.627 137.987 92.9843 137.629 93.443 137.384C93.9017 137.139 94.4243 137.016 95.011 137.016ZM103.353 137.016C105.305 137.016 106.281 138.04 106.281 140.088V144.44C106.281 144.632 106.222 144.787 106.105 144.904C105.998 145.021 105.849 145.08 105.657 145.08C105.465 145.08 105.31 145.021 105.193 144.904C105.075 144.787 105.017 144.632 105.017 144.44V143.672C104.814 144.131 104.505 144.488 104.089 144.744C103.673 144.989 103.193 145.112 102.649 145.112C102.147 145.112 101.683 145.011 101.257 144.808C100.841 144.605 100.51 144.323 100.265 143.96C100.019 143.597 99.8968 143.197 99.8968 142.76C99.8968 142.173 100.046 141.72 100.345 141.4C100.643 141.069 101.134 140.835 101.817 140.696C102.499 140.547 103.449 140.472 104.665 140.472H105.017V139.944C105.017 139.304 104.883 138.835 104.617 138.536C104.361 138.237 103.939 138.088 103.353 138.088C102.627 138.088 101.891 138.285 101.145 138.68C100.857 138.861 100.654 138.952 100.537 138.952C100.409 138.952 100.302 138.904 100.217 138.808C100.131 138.712 100.089 138.589 100.089 138.44C100.089 138.291 100.131 138.163 100.217 138.056C100.313 137.939 100.462 137.821 100.665 137.704C101.038 137.491 101.459 137.325 101.929 137.208C102.409 137.08 102.883 137.016 103.353 137.016ZM102.825 144.088C103.465 144.088 103.987 143.875 104.393 143.448C104.809 143.011 105.017 142.451 105.017 141.768V141.304H104.729C103.79 141.304 103.075 141.347 102.585 141.432C102.094 141.507 101.742 141.64 101.529 141.832C101.326 142.013 101.225 142.285 101.225 142.648C101.225 143.064 101.374 143.411 101.673 143.688C101.982 143.955 102.366 144.088 102.825 144.088ZM112.509 137.048C112.957 137.016 113.181 137.197 113.181 137.592C113.181 137.763 113.133 137.901 113.037 138.008C112.941 138.104 112.776 138.163 112.541 138.184L112.061 138.232C111.346 138.296 110.813 138.552 110.461 139C110.12 139.437 109.949 139.955 109.949 140.552V144.44C109.949 144.653 109.89 144.813 109.773 144.92C109.656 145.027 109.501 145.08 109.309 145.08C109.117 145.08 108.957 145.027 108.829 144.92C108.712 144.803 108.653 144.643 108.653 144.44V137.688C108.653 137.485 108.717 137.331 108.845 137.224C108.973 137.107 109.128 137.048 109.309 137.048C109.48 137.048 109.624 137.107 109.741 137.224C109.858 137.331 109.917 137.48 109.917 137.672V138.568C110.141 138.099 110.456 137.741 110.861 137.496C111.277 137.251 111.752 137.107 112.285 137.064L112.509 137.048ZM120.17 143.192C120.287 143.192 120.388 143.24 120.474 143.336C120.559 143.432 120.602 143.555 120.602 143.704C120.602 143.971 120.415 144.216 120.042 144.44C119.658 144.664 119.252 144.835 118.826 144.952C118.399 145.059 117.983 145.112 117.578 145.112C116.372 145.112 115.418 144.755 114.714 144.04C114.02 143.325 113.674 142.339 113.674 141.08C113.674 140.28 113.828 139.576 114.138 138.968C114.447 138.349 114.879 137.869 115.434 137.528C115.999 137.187 116.639 137.016 117.354 137.016C118.367 137.016 119.172 137.347 119.77 138.008C120.367 138.669 120.666 139.565 120.666 140.696C120.666 140.909 120.623 141.064 120.538 141.16C120.452 141.256 120.314 141.304 120.122 141.304H114.97C115.066 143.139 115.935 144.056 117.578 144.056C117.994 144.056 118.351 144.003 118.65 143.896C118.948 143.779 119.268 143.624 119.61 143.432C119.887 143.272 120.074 143.192 120.17 143.192ZM117.37 138.024C116.687 138.024 116.138 138.237 115.722 138.664C115.316 139.091 115.076 139.693 115.002 140.472H119.53C119.508 139.683 119.311 139.08 118.938 138.664C118.564 138.237 118.042 138.024 117.37 138.024Z"
    fill="#474747" />
  <path fill-rule="evenodd" clip-rule="evenodd"
    d="M107.168 94.4453C107.353 94.1671 107.666 94 108 94H114C114.334 94 114.647 94.1671 114.832 94.4453L116.535 97H120C120.796 97 121.559 97.3161 122.121 97.8787C122.684 98.4413 123 99.2043 123 100V111C123 111.796 122.684 112.559 122.121 113.121C121.559 113.684 120.796 114 120 114H102C101.204 114 100.441 113.684 99.8787 113.121C99.3161 112.559 99 111.796 99 111V100C99 99.2044 99.3161 98.4413 99.8787 97.8787C100.441 97.3161 101.204 97 102 97H105.465L107.168 94.4453ZM108.535 96L106.832 98.5547C106.647 98.8329 106.334 99 106 99H102C101.735 99 101.48 99.1054 101.293 99.2929C101.105 99.4804 101 99.7348 101 100V111C101 111.265 101.105 111.52 101.293 111.707C101.48 111.895 101.735 112 102 112H120C120.265 112 120.52 111.895 120.707 111.707C120.895 111.52 121 111.265 121 111V100C121 99.7348 120.895 99.4804 120.707 99.2929C120.52 99.1054 120.265 99 120 99H116C115.666 99 115.353 98.8329 115.168 98.5547L113.465 96H108.535ZM111 102C109.343 102 108 103.343 108 105C108 106.657 109.343 108 111 108C112.657 108 114 106.657 114 105C114 103.343 112.657 102 111 102ZM106 105C106 102.239 108.239 100 111 100C113.761 100 116 102.239 116 105C116 107.761 113.761 110 111 110C108.239 110 106 107.761 106 105Z"
    fill="#3044AB" />
  <path fill-rule="evenodd" clip-rule="evenodd"
    d="M107.168 94.4453C107.353 94.1671 107.666 94 108 94H114C114.334 94 114.647 94.1671 114.832 94.4453L116.535 97H120C120.796 97 121.559 97.3161 122.121 97.8787C122.684 98.4413 123 99.2043 123 100V111C123 111.796 122.684 112.559 122.121 113.121C121.559 113.684 120.796 114 120 114H102C101.204 114 100.441 113.684 99.8787 113.121C99.3161 112.559 99 111.796 99 111V100C99 99.2044 99.3161 98.4413 99.8787 97.8787C100.441 97.3161 101.204 97 102 97H105.465L107.168 94.4453ZM108.535 96L106.832 98.5547C106.647 98.8329 106.334 99 106 99H102C101.735 99 101.48 99.1054 101.293 99.2929C101.105 99.4804 101 99.7348 101 100V111C101 111.265 101.105 111.52 101.293 111.707C101.48 111.895 101.735 112 102 112H120C120.265 112 120.52 111.895 120.707 111.707C120.895 111.52 121 111.265 121 111V100C121 99.7348 120.895 99.4804 120.707 99.2929C120.52 99.1054 120.265 99 120 99H116C115.666 99 115.353 98.8329 115.168 98.5547L113.465 96H108.535ZM111 102C109.343 102 108 103.343 108 105C108 106.657 109.343 108 111 108C112.657 108 114 106.657 114 105C114 103.343 112.657 102 111 102ZM106 105C106 102.239 108.239 100 111 100C113.761 100 116 102.239 116 105C116 107.761 113.761 110 111 110C108.239 110 106 107.761 106 105Z"
    fill="url(#paint2_linear_5792_33202)" />
  <path
    d="M265.305 167H0.694517C0.51032 167 0.333677 166.947 0.203429 166.854C0.0731822 166.76 0 166.633 0 166.5C0 166.367 0.0731822 166.24 0.203429 166.146C0.333677 166.053 0.51032 166 0.694517 166H265.305C265.49 166 265.666 166.053 265.797 166.146C265.927 166.24 266 166.367 266 166.5C266 166.633 265.927 166.76 265.797 166.854C265.666 166.947 265.49 167 265.305 167Z"
    fill="#B4B4B4" />
  <path
    d="M180.649 90.4239C180.455 89.8868 180.101 89.4224 179.634 89.0939C179.166 88.7654 178.609 88.5887 178.038 88.5879H120.782C120.418 88.5877 120.057 88.6594 119.72 88.7988C119.384 88.9382 119.078 89.1425 118.82 89.4002C118.562 89.6578 118.358 89.9637 118.219 90.3004C118.079 90.6371 118.008 90.9979 118.008 91.3623V135.303C118.009 136.039 118.301 136.744 118.822 137.264C119.342 137.784 120.047 138.077 120.782 138.078H178.038C178.774 138.077 179.479 137.784 179.999 137.264C180.519 136.744 180.812 136.039 180.813 135.303V91.3623C180.813 91.0424 180.758 90.7248 180.649 90.4239Z"
    fill="white" />
  <path
    d="M180.642 89.836C180.448 89.2989 180.093 88.8345 179.626 88.506C179.159 88.1775 178.602 88.0008 178.031 88H120.774C120.41 87.9999 120.049 88.0715 119.712 88.2109C119.376 88.3503 119.07 88.5546 118.812 88.8123C118.555 89.07 118.35 89.3759 118.211 89.7125C118.072 90.0492 118 90.41 118 90.7744V134.715C118.001 135.451 118.294 136.156 118.814 136.676C119.334 137.196 120.039 137.489 120.774 137.49H178.031C178.766 137.489 179.471 137.196 179.991 136.676C180.511 136.156 180.804 135.451 180.805 134.715V90.7744C180.805 90.4545 180.75 90.137 180.642 89.836ZM180.478 134.715C180.478 135.364 180.219 135.986 179.761 136.445C179.302 136.904 178.68 137.162 178.031 137.163H120.774C120.125 137.162 119.503 136.904 119.044 136.445C118.585 135.986 118.327 135.364 118.326 134.715V90.7744C118.327 90.1254 118.585 89.5032 119.044 89.0443C119.503 88.5854 120.125 88.3272 120.774 88.3264H178.031C178.68 88.3272 179.302 88.5854 179.761 89.0443C180.219 89.5032 180.478 90.1254 180.478 90.7744L180.478 134.715Z"
    fill="#3044AB" />
  <path
    d="M180.642 89.836C180.448 89.2989 180.093 88.8345 179.626 88.506C179.159 88.1775 178.602 88.0008 178.031 88H120.774C120.41 87.9999 120.049 88.0715 119.712 88.2109C119.376 88.3503 119.07 88.5546 118.812 88.8123C118.555 89.07 118.35 89.3759 118.211 89.7125C118.072 90.0492 118 90.41 118 90.7744V134.715C118.001 135.451 118.294 136.156 118.814 136.676C119.334 137.196 120.039 137.489 120.774 137.49H178.031C178.766 137.489 179.471 137.196 179.991 136.676C180.511 136.156 180.804 135.451 180.805 134.715V90.7744C180.805 90.4545 180.75 90.137 180.642 89.836ZM180.478 134.715C180.478 135.364 180.219 135.986 179.761 136.445C179.302 136.904 178.68 137.162 178.031 137.163H120.774C120.125 137.162 119.503 136.904 119.044 136.445C118.585 135.986 118.327 135.364 118.326 134.715V90.7744C118.327 90.1254 118.585 89.5032 119.044 89.0443C119.503 88.5854 120.125 88.3272 120.774 88.3264H178.031C178.68 88.3272 179.302 88.5854 179.761 89.0443C180.219 89.5032 180.478 90.1254 180.478 90.7744L180.478 134.715Z"
    fill="url(#paint3_linear_5792_33202)" />
  <path
    d="M176.388 93.9111V124.594C176.388 124.695 176.369 124.796 176.33 124.889C176.291 124.983 176.234 125.068 176.162 125.14C176.091 125.212 176.006 125.268 175.912 125.307C175.818 125.346 175.718 125.366 175.617 125.366H123.534C123.497 125.366 123.46 125.364 123.423 125.358C123.24 125.331 123.072 125.239 122.95 125.099C122.829 124.959 122.762 124.779 122.762 124.594V93.9111C122.762 93.8097 122.782 93.7093 122.82 93.6156C122.859 93.5219 122.916 93.4368 122.988 93.365C123.059 93.2933 123.144 93.2364 123.238 93.1975C123.332 93.1587 123.432 93.1387 123.534 93.1387H175.616C175.717 93.1386 175.818 93.1586 175.912 93.1974C176.005 93.2361 176.09 93.293 176.162 93.3647C176.234 93.4363 176.291 93.5215 176.33 93.6151C176.368 93.7088 176.388 93.8092 176.388 93.9106V93.9111Z"
    fill="#E6E6E6" />
  <path
    d="M135.891 111.382C139.633 111.382 142.667 108.348 142.667 104.605C142.667 100.862 139.633 97.8281 135.891 97.8281C132.148 97.8281 129.114 100.862 129.114 104.605C129.114 108.348 132.148 111.382 135.891 111.382Z"
    fill="#3044AB" />
  <path
    d="M135.891 111.382C139.633 111.382 142.667 108.348 142.667 104.605C142.667 100.862 139.633 97.8281 135.891 97.8281C132.148 97.8281 129.114 100.862 129.114 104.605C129.114 108.348 132.148 111.382 135.891 111.382Z"
    fill="url(#paint4_linear_5792_33202)" />
  <path
    d="M157.141 125.49H123.898C123.856 125.491 123.814 125.487 123.773 125.48L139.496 98.2444C139.592 98.0747 139.731 97.9336 139.9 97.8355C140.068 97.7373 140.259 97.6855 140.454 97.6855C140.649 97.6855 140.841 97.7373 141.009 97.8355C141.177 97.9336 141.316 98.0747 141.412 98.2444L151.964 116.522L152.47 117.396L157.141 125.49Z"
    fill="#3F3D56" />
  <path opacity="0.2"
    d="M157.141 125.49H145.791L151.363 117.396L151.764 116.813L151.964 116.521L152.47 117.396L157.141 125.49Z"
    fill="black" />
  <path
    d="M175.65 125.491H146.897L152.469 117.397L152.87 116.814L160.131 106.266C160.607 105.575 161.752 105.532 162.311 106.136C162.349 106.177 162.384 106.22 162.416 106.266L175.65 125.491Z"
    fill="#3F3D56" />
  <path
    d="M165.561 95.3538C165.827 94.9917 166.177 94.6864 166.588 94.4595C166.999 94.2325 167.461 94.0895 167.94 94.0404C168.419 93.9913 168.904 94.0374 169.361 94.1753C169.818 94.3133 170.236 94.5398 170.586 94.8389L181 90L180.353 95.4513L170.562 99.2107C169.965 99.7057 169.187 99.9864 168.375 99.9995C167.564 100.013 166.775 99.7573 166.159 99.2819C165.542 98.8065 165.141 98.144 165.031 97.4201C164.921 96.6961 165.109 95.9609 165.561 95.3538Z"
    fill="#FFB8B8" />
  <path
    d="M174.771 97.8589C174.969 97.9495 175.183 97.9976 175.401 97.9999C175.619 98.0022 175.834 97.9588 176.034 97.8723L186.415 93.3713C189.965 91.8329 192.835 89.0582 194.491 85.5633L199.949 74.049C200.351 73.5318 200.648 72.9404 200.822 72.3085C200.995 71.6767 201.043 71.0168 200.961 70.3665C200.88 69.7163 200.671 69.0886 200.346 68.5191C200.022 67.9497 199.588 67.4498 199.07 67.0479C198.553 66.646 197.96 66.3501 197.328 66.177C196.696 66.004 196.035 65.9572 195.385 66.0393C194.734 66.1215 194.107 66.331 193.537 66.6558C192.968 66.9806 192.468 67.4144 192.066 67.9324L182.473 85.7222L173.615 92.4101C173.361 92.6024 173.173 92.8679 173.075 93.1707C172.977 93.4735 172.975 93.799 173.068 94.1031L173.938 96.9099C174.031 97.2109 174.214 97.4762 174.462 97.6706C174.557 97.7453 174.661 97.8085 174.771 97.8589Z"
    fill="#3044AB" />
  <path
    d="M200 61C195.029 61 191 57.1944 191 52.5C191 47.8056 195.029 44 200 44C204.971 44 209 47.8056 209 52.5C209 57.1944 204.971 61 200 61Z"
    fill="#FFB8B8" />
  <path d="M196.999 162L192.256 162L190 146L197 146L196.999 162Z" fill="#FFB8B8" />
  <path
    d="M184.54 166.066L197.637 166.067L197.637 161.007L189.6 161.006C188.258 161.006 186.971 161.539 186.022 162.488C185.073 163.437 184.54 164.724 184.54 166.066Z"
    fill="#2F2E41" />
  <path d="M209.999 162L205.934 162L204 146L210 146L209.999 162Z" fill="#FFB8B8" />
  <path
    d="M198.137 166.066L211.233 166.067L211.234 161.007L203.197 161.006C201.855 161.006 200.568 161.539 199.619 162.488C198.67 163.437 198.137 164.724 198.137 166.066Z"
    fill="#2F2E41" />
  <path
    d="M211.626 157.473C211.768 157.307 211.873 157.113 211.936 156.902C211.998 156.691 212.015 156.47 211.987 156.251L204.79 101L186.908 104.108L185 102.936L189.935 155.359C189.976 155.713 190.135 156.042 190.385 156.29C190.635 156.537 190.961 156.689 191.308 156.72L196.723 157.182C196.938 157.2 197.155 157.171 197.358 157.096C197.561 157.021 197.746 156.903 197.901 156.749C198.056 156.594 198.176 156.408 198.255 156.202C198.333 155.996 198.367 155.775 198.354 155.554L196.953 130.588C196.95 130.546 196.963 130.504 196.989 130.471C197.015 130.438 197.052 130.416 197.093 130.409C197.134 130.402 197.176 130.411 197.211 130.434C197.246 130.457 197.271 130.492 197.282 130.533L204.217 156.857C204.304 157.185 204.493 157.474 204.757 157.681C205.02 157.887 205.342 158 205.674 158H210.491C210.706 158 210.919 157.953 211.114 157.862C211.31 157.771 211.485 157.638 211.626 157.473Z"
    fill="#2F2E41" />
  <path
    d="M199.158 105.445C199.371 105.257 199.645 105.148 199.932 105.136C200.219 105.124 200.502 105.211 200.73 105.381L204.443 108.19C204.645 108.344 204.882 108.446 205.135 108.49C205.387 108.533 205.647 108.515 205.89 108.438C206.134 108.361 206.354 108.227 206.532 108.047C206.71 107.868 206.84 107.649 206.911 107.409C208.732 101.204 212.858 85.5855 211.841 74.5926C211.265 68.3616 205.735 63.6259 199.513 64.0233C195.259 64.2992 192.461 66.6866 191.195 71.1188C188.088 82.0011 184.674 101.963 184.021 105.854C183.97 106.156 184.013 106.466 184.146 106.743C184.279 107.021 184.494 107.253 184.765 107.409C186.522 108.435 188.529 108.984 190.577 109C193.056 109 196.029 108.16 199.158 105.445Z"
    fill="#3044AB" />
  <path
    d="M199.158 105.445C199.371 105.257 199.645 105.148 199.932 105.136C200.219 105.124 200.502 105.211 200.73 105.381L204.443 108.19C204.645 108.344 204.882 108.446 205.135 108.49C205.387 108.533 205.647 108.515 205.89 108.438C206.134 108.361 206.354 108.227 206.532 108.047C206.71 107.868 206.84 107.649 206.911 107.409C208.732 101.204 212.858 85.5855 211.841 74.5926C211.265 68.3616 205.735 63.6259 199.513 64.0233C195.259 64.2992 192.461 66.6866 191.195 71.1188C188.088 82.0011 184.674 101.963 184.021 105.854C183.97 106.156 184.013 106.466 184.146 106.743C184.279 107.021 184.494 107.253 184.765 107.409C186.522 108.435 188.529 108.984 190.577 109C193.056 109 196.029 108.16 199.158 105.445Z"
    fill="url(#paint5_linear_5792_33202)" />
  <path
    d="M198.011 108.981C197.971 108.508 198.039 108.033 198.211 107.588C198.383 107.143 198.654 106.74 199.006 106.407C199.358 106.074 199.781 105.818 200.246 105.66C200.711 105.501 201.207 105.442 201.699 105.487L206.694 95L210 100.082L204.75 109.261C204.616 110.05 204.186 110.764 203.541 111.268C202.896 111.772 202.081 112.032 201.251 111.997C200.42 111.962 199.632 111.636 199.034 111.08C198.437 110.525 198.073 109.778 198.011 108.981Z"
    fill="#FFB8B8" />
  <path
    d="M206.8 105.958C207.008 105.908 207.204 105.814 207.374 105.682C207.544 105.551 207.685 105.385 207.787 105.195L213.1 95.32C214.917 91.9439 215.454 88.0183 214.611 84.2734L211.836 71.9341C211.834 71.2833 211.704 70.6393 211.455 70.039C211.205 69.4387 210.84 68.8938 210.381 68.4356C209.922 67.9773 209.378 67.6147 208.78 67.3684C208.181 67.122 207.541 66.9969 206.894 67.0001C206.248 67.0032 205.608 67.1347 205.012 67.3869C204.417 67.6391 203.876 68.007 203.421 68.4698C202.967 68.9325 202.607 69.481 202.363 70.0837C202.12 70.6864 201.996 71.3317 202 71.9825L205.386 91.758L202.586 102.409C202.507 102.715 202.522 103.037 202.631 103.334C202.739 103.63 202.936 103.886 203.193 104.066L205.576 105.727C205.831 105.905 206.135 106 206.446 106C206.565 106 206.684 105.986 206.8 105.958Z"
    fill="#3044AB" />
  <path opacity="0.2" d="M202.538 80L206 93.0286L201 104L204.462 93.3714L202.538 80Z" fill="black" />
  <path
    d="M200.832 60.9981C203.84 61.069 206.812 59.1216 208.169 56.1909C208.831 54.7041 209.105 53.0617 208.964 51.4293C208.822 49.7969 208.269 48.2323 207.361 46.8932C206.455 45.6168 205.218 44.636 203.795 44.066C202.372 43.496 200.822 43.3605 199.328 43.6753C197.674 42.5792 195.75 41.8415 193.823 42.0292C191.895 42.2168 189.989 43.4657 189.268 45.4259C188.547 47.386 189.321 49.9697 191.114 50.7663C192.263 51.277 193.56 51.0294 194.787 50.8234C196.013 50.6175 197.351 50.4831 198.418 51.1736C199.485 51.8642 199.965 53.7158 199.009 54.5791C198.498 55.0696 198.137 55.7052 197.969 56.4073C197.801 57.1095 197.834 57.8474 198.065 58.5301C198.545 59.8859 199.856 60.9751 200.832 60.9981Z"
    fill="#2F2E41" />
  <defs>
    <linearGradient id="paint0_linear_5792_33202" x1="111.602" y1="103.591" x2="110.627" y2="128.305"
      gradientUnits="userSpaceOnUse">
      <stop stop-color="#3044AB" />
      <stop offset="1" stop-color="#263689" />
    </linearGradient>
    <linearGradient id="paint1_linear_5792_33202" x1="97.7284" y1="40.2575" x2="97.3898" y2="47.0197"
      gradientUnits="userSpaceOnUse">
      <stop stop-color="#3044AB" />
      <stop offset="1" stop-color="#263689" />
    </linearGradient>
    <linearGradient id="paint2_linear_5792_33202" x1="111.076" y1="104" x2="110.66" y2="113.986"
      gradientUnits="userSpaceOnUse">
      <stop stop-color="#3044AB" />
      <stop offset="1" stop-color="#263689" />
    </linearGradient>
    <linearGradient id="paint3_linear_5792_33202" x1="149.602" y1="112.745" x2="148.627" y2="137.459"
      gradientUnits="userSpaceOnUse">
      <stop stop-color="#3044AB" />
      <stop offset="1" stop-color="#263689" />
    </linearGradient>
    <linearGradient id="paint4_linear_5792_33202" x1="135.934" y1="104.605" x2="135.595" y2="111.367"
      gradientUnits="userSpaceOnUse">
      <stop stop-color="#3044AB" />
      <stop offset="1" stop-color="#263689" />
    </linearGradient>
    <linearGradient id="paint5_linear_5792_33202" x1="197.911" y1="86.5" x2="199.71" y2="108.862"
      gradientUnits="userSpaceOnUse">
      <stop stop-color="#3044AB" />
      <stop offset="1" stop-color="#263689" />
    </linearGradient>
  </defs>
</svg>