<svg width="25" height="27" viewBox="0 0 33 27" fill="none" xmlns="http://www.w3.org/2000/svg">
  <path
    d="M7.17361 0.584362C7.64153 0.724725 8.22373 0.928766 8.89002 1.22247C10.6487 1.99767 12.9964 3.39875 15.381 5.91072V22.6927C13.3574 20.4709 11.4133 19.0755 9.83369 18.2053C8.78742 17.6289 7.90568 17.2854 7.27269 17.0843C7.23895 17.0735 7.20592 17.0632 7.17361 17.0533V0.584362Z"
    stroke="#072F50" />
  <path
    d="M1.95074 5.25935H4.93524V17.9959C4.93524 18.5896 5.34697 19.0921 5.89956 19.1741L5.92502 19.1786C5.95086 19.1833 5.9955 19.192 6.05771 19.2059C6.18214 19.2339 6.37672 19.283 6.63152 19.364C7.14103 19.5259 7.89144 19.8153 8.80375 20.3179C10.2191 21.0976 12.0355 22.3967 13.9526 24.5473C13.6512 24.6707 13.328 24.7244 13.0089 24.6839C9.18574 24.1981 5.23658 25.4266 2.59172 26.5111C1.57914 26.9263 0.458496 26.1574 0.458496 25.0037V6.84562C0.458496 5.96955 1.1266 5.25935 1.95074 5.25935Z"
    stroke="#072F50" />
  <path d="M5.90406 19.1748C5.90406 19.1748 5.90522 19.175 6.05443 17.9959L5.90406 19.1748Z" fill="white" />
  <path
    d="M25.8267 0.584351C25.3588 0.724714 24.7766 0.928754 24.1103 1.22245C22.3517 1.99766 20.0039 3.39874 17.6193 5.91071V22.6927C19.6429 20.4709 21.5871 19.0755 23.1666 18.2053C24.2129 17.6289 25.0946 17.2854 25.7276 17.0842C25.7614 17.0735 25.7944 17.0632 25.8267 17.0533V0.584351Z"
    stroke="#072F50" />
  <path
    d="M31.0496 5.25934H28.0651V17.9959C28.0651 18.5896 27.6534 19.0921 27.1008 19.1741L27.0753 19.1786C27.0495 19.1833 27.0048 19.1919 26.9426 19.2059C26.8182 19.2339 26.6236 19.283 26.3688 19.3639C25.8593 19.5259 25.1089 19.8152 24.1966 20.3178C22.7812 21.0976 20.9648 22.3967 19.0477 24.5473C19.3491 24.6707 19.6723 24.7244 19.9914 24.6839C23.8146 24.1981 27.7637 25.4266 30.4086 26.5111C31.4212 26.9263 32.5418 26.1574 32.5418 25.0037V6.84561C32.5418 5.96954 31.8737 5.25934 31.0496 5.25934Z"
    stroke="#072F50" />
  <path d="M27.0963 19.1748C27.0963 19.1748 27.0951 19.175 26.9459 17.9959L27.0963 19.1748Z" fill="#072F50" />
</svg>